# xmcd
#
# Track frame offsets:
#	150
#	12245
#	29471
#	49511
#	64914
#	79506
#	96799
#	114003
#	134986
#	156722
#	176315
#	195988
#	210498
#	244537
#
# Disc length: 3617 seconds
#
# Revision: 0
# Processed by: cddbd v1.5.1PL2 Copyright (c) Steve Scherf et al.
# Submitted via: EasyCDDAExtractor 7.1.2.1
#
DISCID=b20e1f0e
DTITLE=Various Artist - Έχουν Περάσει Χρόνοι Δέκα...
DYEAR=2005
DGENRE=Blues
TTITLE0=Ορχηστρικό - 01-09-2005
TTITLE1=Μίλτος Πασχαλίδης - Παραμύθι Με Λυπημένο Τέλος
TTITLE2=Μίλτος Πασχαλίδης - Τα Μπλουζ Της ’γριας Νιότης
TTITLE3=Βαγγέλης Γερμανός - Μίλτος Πασχαλίδης - Ηράκλειο-Καλαμάτα
TTITLE4=Μίλτος Πασχαλίδης - Ακόμα Σ' Αγαπώ
TTITLE5=Μαργαρίτα Ζορμπαλά - Μάτια Που Δε Βλέπονται
TTITLE6=Μαργαρίτα Ζορμπαλά - Μίλτος Πασχαλίδης - Οι Γερανοί
TTITLE7=Κώστας Θωμαϊδης - Μίλτος Πασχαλίδης - Το Σαράκι Του Ρεμπώ
TTITLE8=Μίλτος Πασχαλίδης - Απουσία
TTITLE9=Κώστας Λειβαδάς - Μίλτος Πασχαλίδης - Ένα Πεύκο Στην Ακρογιαλιά
TTITLE10=Βασίλης Παπακωνσταντίνου - Σαν Των Ματιών Σου Τις Βαφές
TTITLE11=Βασίλης Παπακωνσταντίνου - Μίλτος Πασχαλίδης - Πηνελόπη
TTITLE12=Μίλτος Πασχαλίδης - Βυθισμένες ’γκυρες
TTITLE13=shit - shit
EXTD=
EXTT0=
EXTT1=
EXTT2=
EXTT3=
EXTT4=
EXTT5=
EXTT6=
EXTT7=
EXTT8=
EXTT9=
EXTT10=
EXTT11=
EXTT12=
EXTT13=
PLAYORDER=
